SplineFontDB: 3.2
FontName: Pixel-7x7-True-Monospace
FullName: Pixel-7x7 True Monospace
FamilyName: Pixel-7x7
Weight: Regular
Copyright: Copyright (c) 2024, CTCL
UComments: "2024-6-4: Created with FontForge (http://fontforge.org)"
Version: 001.000
ItalicAngle: 0
UnderlinePosition: 0
UnderlineWidth: 0
Ascent: 7
Descent: 1
InvalidEm: 0
LayerCount: 2
Layer: 0 0 "Back" 1
Layer: 1 0 "Fore" 0
HasVMetrics: 1
XUID: [1021 591 -1735377019 11779720]
OS2Version: 0
OS2_WeightWidthSlopeOnly: 0
OS2_UseTypoMetrics: 1
CreationTime: 1717512496
ModificationTime: 1717515031
OS2TypoAscent: 0
OS2TypoAOffset: 1
OS2TypoDescent: 0
OS2TypoDOffset: 1
OS2TypoLinegap: 0
OS2WinAscent: 0
OS2WinAOffset: 1
OS2WinDescent: 0
OS2WinDOffset: 1
HheadAscent: 0
HheadAOffset: 1
HheadDescent: 0
HheadDOffset: 1
OS2Vendor: 'PfEd'
MarkAttachClasses: 1
DEI: 91125
Encoding: ISO8859-1
UnicodeInterp: none
NameList: AGL For New Fonts
DisplaySize: -48
AntiAlias: 1
FitToEm: 0
WinInfo: 0 38 14
BeginPrivate: 0
EndPrivate
BeginChars: 256 224

StartChar: exclam
Encoding: 33 33 0
Width: 6
VWidth: 9
Flags: W
LayerCount: 2
Fore
SplineSet
2 7 m 1
 3 7 l 1
 3 6 l 1
 3 5 l 1
 3 4 l 1
 3 3 l 1
 3 2 l 1
 2 2 l 1
 2 3 l 1
 2 4 l 1
 2 5 l 1
 2 6 l 1
 2 7 l 1
2 1 m 1
 3 1 l 1
 3 0 l 1
 2 0 l 1
 2 1 l 1
EndSplineSet
EndChar

StartChar: quotedbl
Encoding: 34 34 2
Width: 6
VWidth: 9
Flags: W
HStem: 5 2<1 2 3 4>
VStem: 1 1<5 7> 3 1<5 7>
LayerCount: 2
Fore
SplineSet
1 7 m 1
 2 7 l 1
 2 6 l 1
 2 5 l 1
 1 5 l 1
 1 6 l 1
 1 7 l 1
3 7 m 1
 4 7 l 1
 4 6 l 1
 4 5 l 1
 3 5 l 1
 3 6 l 1
 3 7 l 1
EndSplineSet
EndChar

StartChar: numbersign
Encoding: 35 35 3
Width: 6
VWidth: 9
Flags: W
HStem: -13 20G<1 2 3 4> -13 20G<1 2 3 4> 0 21G<1 2 3 4> 0 21G<1 2 3 4> 2 1<0 1 2 3 4 5> 4 1<0 1 2 3 4 5>
VStem: 1 1<0 2 3 4 5 7> 3 1<0 2 3 4 5 7>
LayerCount: 2
Fore
SplineSet
1 7 m 1x83
 2 7 l 1x83
 2 6 l 1
 2 5 l 1
 3 5 l 1x07
 3 6 l 1
 3 7 l 1
 4 7 l 1x83
 4 6 l 1
 4 5 l 1
 5 5 l 1
 5 4 l 1
 4 4 l 1
 4 3 l 1
 5 3 l 1
 5 2 l 1
 4 2 l 1x0f
 4 1 l 1
 4 0 l 1
 3 0 l 1x23
 3 1 l 1
 3 2 l 1
 2 2 l 1x0b
 2 1 l 1
 2 0 l 1
 1 0 l 1x23
 1 1 l 1
 1 2 l 1
 0 2 l 1
 0 3 l 1
 1 3 l 1
 1 4 l 1
 0 4 l 1
 0 5 l 1
 1 5 l 1x0f
 1 6 l 1
 1 7 l 1x83
2 4 m 1x0f
 2 3 l 1
 3 3 l 1
 3 4 l 1
 2 4 l 1x0f
EndSplineSet
EndChar

StartChar: dollar
Encoding: 36 36 4
Width: 6
VWidth: 9
Flags: W
HStem: -13 20G<2 3> -13 20G<2 3> 0 21G<2 3> 0 21G<2 3> 1 1<0 2 3 4> 3 1<1 2 3 4> 5 1<1 2 3 5>
VStem: 0 1<4 5> 2 1<0 1 2 3 4 5 6 7>
LayerCount: 2
Fore
SplineSet
2 7 m 1x8180
 3 7 l 1x8180
 3 6 l 1
 4 6 l 1
 5 6 l 1
 5 5 l 1
 4 5 l 1
 3 5 l 1
 3 4 l 1
 4 4 l 1
 5 4 l 1
 5 3 l 1
 5 2 l 1
 5 1 l 1
 4 1 l 1
 3 1 l 1x0f80
 3 0 l 1
 2 0 l 1x2180
 2 1 l 1
 1 1 l 1
 0 1 l 1
 0 2 l 1
 1 2 l 1
 2 2 l 1
 2 3 l 1
 1 3 l 1
 0 3 l 1
 0 4 l 1
 0 5 l 1
 0 6 l 1
 1 6 l 1
 2 6 l 1x0f80
 2 7 l 1x8180
1 5 m 1x0780
 1 4 l 1
 2 4 l 1
 2 5 l 1
 1 5 l 1x0780
3 3 m 1
 3 2 l 1
 4 2 l 1x0d80
 4 3 l 1
 3 3 l 1
EndSplineSet
EndChar

StartChar: percent
Encoding: 37 37 5
Width: 6
VWidth: 9
Flags: W
HStem: 5 2<0 2> 6 1<4 5>
VStem: 0 2<5 7> 4 1<6 7>
LayerCount: 2
Fore
SplineSet
0 7 m 1xb0
 1 7 l 1
 2 7 l 1xb0
 2 6 l 1x70
 2 5 l 1
 1 5 l 1
 0 5 l 1xb0
 0 6 l 1x70
 0 7 l 1xb0
4 7 m 1x70
 5 7 l 1
 5 6 l 1
 4 6 l 1
 4 7 l 1x70
4 6 m 1
 3 6 l 1x70
 3 5 l 1
 3 4 l 1
 4 4 l 1
 4 5 l 1xb0
 4 6 l 1
3 4 m 1
 2 4 l 1
 2 3 l 1
 3 3 l 1
 3 4 l 1
2 3 m 1
 1 3 l 1
 1 2 l 1
 1 1 l 1
 2 1 l 1
 2 2 l 1
 2 3 l 1
1 1 m 1
 0 1 l 1
 0 0 l 1
 1 0 l 1
 1 1 l 1
3 2 m 1
 3 1 l 1
 3 0 l 1
 4 0 l 1
 5 0 l 1
 5 1 l 1
 5 2 l 1
 4 2 l 1
 3 2 l 1
EndSplineSet
EndChar

StartChar: ampersand
Encoding: 38 38 6
Width: 6
VWidth: 9
Flags: W
HStem: 6 1<2 3>
VStem: 2 1<6 7>
LayerCount: 2
Fore
SplineSet
2 7 m 1
 3 7 l 1
 3 6 l 1
 2 6 l 1
 2 7 l 1
3 6 m 1
 3 5 l 1
 4 5 l 1
 4 6 l 1
 3 6 l 1
3 5 m 1
 2 5 l 1
 2 4 l 1
 1 4 l 1
 1 3 l 1
 2 3 l 1
 2 2 l 1
 3 2 l 1
 3 1 l 1
 4 1 l 1
 4 2 l 1
 4 3 l 1
 3 3 l 1
 3 4 l 1
 3 5 l 1
4 3 m 1
 5 3 l 1
 5 4 l 1
 4 4 l 1
 4 3 l 1
4 1 m 1
 4 0 l 1
 5 0 l 1
 5 1 l 1
 4 1 l 1
3 1 m 1
 2 1 l 1
 1 1 l 1
 1 0 l 1
 2 0 l 1
 3 0 l 1
 3 1 l 1
1 1 m 1
 1 2 l 1
 1 3 l 1
 0 3 l 1
 0 2 l 1
 0 1 l 1
 1 1 l 1
2 5 m 1
 2 6 l 1
 1 6 l 1
 1 5 l 1
 2 5 l 1
EndSplineSet
EndChar

StartChar: quotesingle
Encoding: 39 39 7
Width: 6
VWidth: 9
Flags: W
HStem: -13 20G<2 3> -13 20G<2 3> 5 21G<2 3>
VStem: 2 1<5 7>
LayerCount: 2
Fore
SplineSet
2 7 m 1x90
 3 7 l 1x90
 3 6 l 1
 3 5 l 1
 2 5 l 1x30
 2 6 l 1
 2 7 l 1x90
EndSplineSet
EndChar

StartChar: parenleft
Encoding: 40 40 8
Width: 6
VWidth: 9
Flags: W
HStem: 6 1<3 4>
VStem: 3 1<6 7>
LayerCount: 2
Fore
SplineSet
3 7 m 1
 4 7 l 1
 4 6 l 1
 3 6 l 1
 3 7 l 1
3 6 m 1
 2 6 l 1
 2 5 l 1
 3 5 l 1
 3 6 l 1
2 5 m 1
 1 5 l 1
 1 4 l 1
 1 3 l 1
 1 2 l 1
 2 2 l 1
 2 3 l 1
 2 4 l 1
 2 5 l 1
2 2 m 1
 2 1 l 1
 3 1 l 1
 3 2 l 1
 2 2 l 1
3 1 m 1
 3 0 l 1
 4 0 l 1
 4 1 l 1
 3 1 l 1
EndSplineSet
EndChar

StartChar: parenright
Encoding: 41 41 9
Width: 6
VWidth: 9
Flags: W
HStem: 6 1<1 2>
VStem: 1 1<6 7>
LayerCount: 2
Fore
SplineSet
1 7 m 1
 2 7 l 1
 2 6 l 1
 1 6 l 1
 1 7 l 1
2 6 m 1
 2 5 l 1
 3 5 l 1
 3 6 l 1
 2 6 l 1
3 5 m 1
 3 4 l 1
 3 3 l 1
 3 2 l 1
 4 2 l 1
 4 3 l 1
 4 4 l 1
 4 5 l 1
 3 5 l 1
3 2 m 1
 2 2 l 1
 2 1 l 1
 3 1 l 1
 3 2 l 1
2 1 m 1
 1 1 l 1
 1 0 l 1
 2 0 l 1
 2 1 l 1
EndSplineSet
EndChar

StartChar: asterisk
Encoding: 42 42 10
Width: 6
VWidth: 9
Flags: W
HStem: 6 1<1 2 3 4>
VStem: 1 1<6 7> 3 1<6 7>
LayerCount: 2
Fore
SplineSet
1 7 m 1
 2 7 l 1
 2 6 l 1
 1 6 l 1
 1 7 l 1
2 6 m 1
 2 5 l 1
 3 5 l 1
 3 6 l 1
 2 6 l 1
3 6 m 1
 3 7 l 1
 4 7 l 1
 4 6 l 1
 3 6 l 1
3 5 m 1
 3 4 l 1
 4 4 l 1
 4 5 l 1
 3 5 l 1
2 5 m 1
 1 5 l 1
 1 4 l 1
 2 4 l 1
 2 5 l 1
EndSplineSet
EndChar

StartChar: plus
Encoding: 43 43 11
Width: 6
VWidth: 9
Flags: W
HStem: -14 20G<2 3> -14 20G<2 3> 1 21G<2 3> 1 21G<2 3> 3 1<0 2 3 5>
VStem: 2 1<1 3 4 6>
LayerCount: 2
Fore
SplineSet
2 6 m 1x84
 3 6 l 1x84
 3 5 l 1
 3 4 l 1
 4 4 l 1
 5 4 l 1
 5 3 l 1
 4 3 l 1
 3 3 l 1x0c
 3 2 l 1
 3 1 l 1
 2 1 l 1x24
 2 2 l 1
 2 3 l 1
 1 3 l 1
 0 3 l 1
 0 4 l 1
 1 4 l 1
 2 4 l 1x0c
 2 5 l 1
 2 6 l 1x84
EndSplineSet
EndChar

StartChar: comma
Encoding: 44 44 12
Width: 6
VWidth: 9
Flags: W
HStem: 0 21G<2 3> 0 21G<2 3>
VStem: 2 1<0 2>
LayerCount: 2
Fore
SplineSet
2 2 m 1xa0
 3 2 l 1
 3 1 l 1
 3 0 l 1
 2 0 l 1
 2 1 l 1
 2 2 l 1xa0
EndSplineSet
EndChar

StartChar: hyphen
Encoding: 45 45 13
Width: 6
VWidth: 9
Flags: W
HStem: 3 1<1 4>
LayerCount: 2
Fore
SplineSet
1 4 m 1
 2 4 l 1
 3 4 l 1
 4 4 l 1
 4 3 l 1
 3 3 l 1
 2 3 l 1
 1 3 l 1
 1 4 l 1
EndSplineSet
EndChar

StartChar: period
Encoding: 46 46 14
Width: 6
VWidth: 9
Flags: W
HStem: 0 1<2 3>
VStem: 2 1<0 1>
LayerCount: 2
Fore
SplineSet
2 1 m 1
 3 1 l 1
 3 0 l 1
 2 0 l 1
 2 1 l 1
EndSplineSet
EndChar

StartChar: slash
Encoding: 47 47 15
Width: 6
VWidth: 9
Flags: W
HStem: 6 1<4 5>
VStem: 4 1<6 7>
LayerCount: 2
Fore
SplineSet
4 7 m 1
 5 7 l 1
 5 6 l 1
 4 6 l 1
 4 7 l 1
4 6 m 1
 3 6 l 1
 3 5 l 1
 3 4 l 1
 4 4 l 1
 4 5 l 1
 4 6 l 1
3 4 m 1
 2 4 l 1
 2 3 l 1
 3 3 l 1
 3 4 l 1
2 3 m 1
 1 3 l 1
 1 2 l 1
 1 1 l 1
 2 1 l 1
 2 2 l 1
 2 3 l 1
1 1 m 1
 0 1 l 1
 0 0 l 1
 1 0 l 1
 1 1 l 1
EndSplineSet
EndChar

StartChar: zero
Encoding: 48 48 16
Width: 6
VWidth: 9
Flags: W
HStem: 6 1<1 4>
LayerCount: 2
Fore
SplineSet
1 7 m 1
 2 7 l 1
 3 7 l 1
 4 7 l 1
 4 6 l 1
 3 6 l 1
 2 6 l 1
 1 6 l 1
 1 7 l 1
4 6 m 1
 4 5 l 1
 4 4 l 1
 4 3 l 1
 3 3 l 1
 3 2 l 1
 4 2 l 1
 4 1 l 1
 5 1 l 1
 5 2 l 1
 5 3 l 1
 5 4 l 1
 5 5 l 1
 5 6 l 1
 4 6 l 1
4 1 m 1
 3 1 l 1
 2 1 l 1
 1 1 l 1
 1 0 l 1
 2 0 l 1
 3 0 l 1
 4 0 l 1
 4 1 l 1
1 1 m 1
 1 2 l 1
 1 3 l 1
 1 4 l 1
 2 4 l 1
 2 5 l 1
 1 5 l 1
 1 6 l 1
 0 6 l 1
 0 5 l 1
 0 4 l 1
 0 3 l 1
 0 2 l 1
 0 1 l 1
 1 1 l 1
2 4 m 1
 2 3 l 1
 3 3 l 1
 3 4 l 1
 2 4 l 1
EndSplineSet
EndChar

StartChar: one
Encoding: 49 49 17
Width: 6
VWidth: 9
Flags: W
HStem: -13 20G<2 3> -13 20G<2 3> 0 1<0 2 3 5>
VStem: 2 1<1 5 6 7>
LayerCount: 2
Fore
SplineSet
2 7 m 1x90
 3 7 l 1x90
 3 6 l 1
 3 5 l 1
 3 4 l 1
 3 3 l 1
 3 2 l 1
 3 1 l 1
 4 1 l 1
 5 1 l 1
 5 0 l 1
 4 0 l 1
 3 0 l 1
 2 0 l 1
 1 0 l 1
 0 0 l 1
 0 1 l 1
 1 1 l 1
 2 1 l 1x30
 2 2 l 1
 2 3 l 1
 2 4 l 1
 2 5 l 1
 1 5 l 1
 1 6 l 1
 2 6 l 1
 2 7 l 1x90
EndSplineSet
EndChar

StartChar: two
Encoding: 50 50 18
Width: 6
VWidth: 9
Flags: W
HStem: 6 1<1 4>
LayerCount: 2
Fore
SplineSet
1 7 m 1
 2 7 l 1
 3 7 l 1
 4 7 l 1
 4 6 l 1
 3 6 l 1
 2 6 l 1
 1 6 l 1
 1 7 l 1
4 6 m 1
 4 5 l 1
 4 4 l 1
 5 4 l 1
 5 5 l 1
 5 6 l 1
 4 6 l 1
4 4 m 1
 3 4 l 1
 3 3 l 1
 4 3 l 1
 4 4 l 1
3 3 m 1
 2 3 l 1
 2 2 l 1
 3 2 l 1
 3 3 l 1
2 2 m 1
 1 2 l 1
 1 1 l 1
 0 1 l 1
 0 0 l 1
 1 0 l 1
 2 0 l 1
 3 0 l 1
 4 0 l 1
 5 0 l 1
 5 1 l 1
 4 1 l 1
 3 1 l 1
 2 1 l 1
 2 2 l 1
1 6 m 1
 0 6 l 1
 0 5 l 1
 1 5 l 1
 1 6 l 1
EndSplineSet
EndChar

StartChar: three
Encoding: 51 51 19
Width: 6
VWidth: 9
Flags: W
HStem: 6 1<1 4>
LayerCount: 2
Fore
SplineSet
1 7 m 1
 2 7 l 1
 3 7 l 1
 4 7 l 1
 4 6 l 1
 3 6 l 1
 2 6 l 1
 1 6 l 1
 1 7 l 1
4 6 m 1
 4 5 l 1
 4 4 l 1
 5 4 l 1
 5 5 l 1
 5 6 l 1
 4 6 l 1
4 4 m 1
 3 4 l 1
 2 4 l 1
 2 3 l 1
 3 3 l 1
 4 3 l 1
 4 4 l 1
4 3 m 1
 4 2 l 1
 4 1 l 1
 5 1 l 1
 5 2 l 1
 5 3 l 1
 4 3 l 1
4 1 m 1
 3 1 l 1
 2 1 l 1
 1 1 l 1
 1 0 l 1
 2 0 l 1
 3 0 l 1
 4 0 l 1
 4 1 l 1
1 1 m 1
 1 2 l 1
 0 2 l 1
 0 1 l 1
 1 1 l 1
1 6 m 1
 0 6 l 1
 0 5 l 1
 1 5 l 1
 1 6 l 1
EndSplineSet
EndChar

StartChar: four
Encoding: 52 52 20
Width: 6
VWidth: 9
Flags: W
HStem: -13 20G<0 1 4 5> -13 20G<0 1 4 5> 0 21G<4 5> 0 21G<4 5> 3 1<1 4>
VStem: 0 1<4 7> 4 1<0 3 4 7>
LayerCount: 2
Fore
SplineSet
0 7 m 1x86
 1 7 l 1x86
 1 6 l 1
 1 5 l 1
 1 4 l 1
 2 4 l 1
 3 4 l 1
 4 4 l 1x0e
 4 5 l 1
 4 6 l 1
 4 7 l 1
 5 7 l 1x86
 5 6 l 1
 5 5 l 1
 5 4 l 1
 5 3 l 1x0e
 5 2 l 1
 5 1 l 1
 5 0 l 1
 4 0 l 1x26
 4 1 l 1
 4 2 l 1
 4 3 l 1
 3 3 l 1
 2 3 l 1
 1 3 l 1
 0 3 l 1
 0 4 l 1x0e
 0 5 l 1
 0 6 l 1
 0 7 l 1x86
EndSplineSet
EndChar

StartChar: five
Encoding: 53 53 21
Width: 6
VWidth: 9
Flags: W
HStem: 3 1<1 4> 6 1<1 5>
VStem: 0 1<4 6>
LayerCount: 2
Fore
SplineSet
0 7 m 1
 1 7 l 1
 2 7 l 1
 3 7 l 1
 4 7 l 1
 5 7 l 1
 5 6 l 1
 4 6 l 1
 3 6 l 1
 2 6 l 1
 1 6 l 1
 1 5 l 1
 1 4 l 1
 2 4 l 1
 3 4 l 1
 4 4 l 1
 4 3 l 1
 3 3 l 1
 2 3 l 1
 1 3 l 1
 0 3 l 1
 0 4 l 1
 0 5 l 1
 0 6 l 1
 0 7 l 1
4 3 m 1
 4 2 l 1
 4 1 l 1
 5 1 l 1
 5 2 l 1
 5 3 l 1
 4 3 l 1
4 1 m 1
 3 1 l 1
 2 1 l 1
 1 1 l 1
 0 1 l 1
 0 0 l 1
 1 0 l 1
 2 0 l 1
 3 0 l 1
 4 0 l 1
 4 1 l 1
EndSplineSet
EndChar

StartChar: six
Encoding: 54 54 22
Width: 6
VWidth: 9
Flags: W
HStem: 6 1<2 4>
LayerCount: 2
Fore
SplineSet
2 7 m 1
 3 7 l 1
 4 7 l 1
 4 6 l 1
 3 6 l 1
 2 6 l 1
 2 7 l 1
2 6 m 1
 1 6 l 1
 1 5 l 1
 2 5 l 1
 2 6 l 1
1 5 m 1
 0 5 l 1
 0 4 l 1
 0 3 l 1
 0 2 l 1
 0 1 l 1
 1 1 l 1
 1 2 l 1
 1 3 l 1
 2 3 l 1
 3 3 l 1
 4 3 l 1
 4 4 l 1
 3 4 l 1
 2 4 l 1
 1 4 l 1
 1 5 l 1
4 3 m 1
 4 2 l 1
 4 1 l 1
 5 1 l 1
 5 2 l 1
 5 3 l 1
 4 3 l 1
4 1 m 1
 3 1 l 1
 2 1 l 1
 1 1 l 1
 1 0 l 1
 2 0 l 1
 3 0 l 1
 4 0 l 1
 4 1 l 1
EndSplineSet
EndChar

StartChar: seven
Encoding: 55 55 23
Width: 6
VWidth: 9
Flags: W
HStem: 5 21G<4 5> 6 1<0 4>
VStem: 4 1<5 6>
LayerCount: 2
Fore
SplineSet
0 7 m 1x60
 1 7 l 1
 2 7 l 1
 3 7 l 1
 4 7 l 1
 5 7 l 1
 5 6 l 1x60
 5 5 l 1
 4 5 l 1xa0
 4 6 l 1
 3 6 l 1
 2 6 l 1
 1 6 l 1
 0 6 l 1
 0 7 l 1x60
4 5 m 1xa0
 3 5 l 1
 3 4 l 1
 4 4 l 1
 4 5 l 1xa0
3 4 m 1
 2 4 l 1
 2 3 l 1
 2 2 l 1
 2 1 l 1
 2 0 l 1
 3 0 l 1
 3 1 l 1
 3 2 l 1
 3 3 l 1
 3 4 l 1
EndSplineSet
EndChar

StartChar: eight
Encoding: 56 56 24
Width: 6
VWidth: 9
Flags: W
HStem: 6 1<1 4>
LayerCount: 2
Fore
SplineSet
1 7 m 1
 2 7 l 1
 3 7 l 1
 4 7 l 1
 4 6 l 1
 3 6 l 1
 2 6 l 1
 1 6 l 1
 1 7 l 1
4 6 m 1
 4 5 l 1
 4 4 l 1
 5 4 l 1
 5 5 l 1
 5 6 l 1
 4 6 l 1
4 4 m 1
 3 4 l 1
 2 4 l 1
 1 4 l 1
 1 3 l 1
 2 3 l 1
 3 3 l 1
 4 3 l 1
 4 4 l 1
4 3 m 1
 4 2 l 1
 4 1 l 1
 5 1 l 1
 5 2 l 1
 5 3 l 1
 4 3 l 1
4 1 m 1
 3 1 l 1
 2 1 l 1
 1 1 l 1
 1 0 l 1
 2 0 l 1
 3 0 l 1
 4 0 l 1
 4 1 l 1
1 1 m 1
 1 2 l 1
 1 3 l 1
 0 3 l 1
 0 2 l 1
 0 1 l 1
 1 1 l 1
1 4 m 1
 1 5 l 1
 1 6 l 1
 0 6 l 1
 0 5 l 1
 0 4 l 1
 1 4 l 1
EndSplineSet
EndChar

StartChar: nine
Encoding: 57 57 25
Width: 6
VWidth: 9
Flags: W
HStem: 6 1<1 4>
LayerCount: 2
Fore
SplineSet
1 7 m 1
 2 7 l 1
 3 7 l 1
 4 7 l 1
 4 6 l 1
 3 6 l 1
 2 6 l 1
 1 6 l 1
 1 7 l 1
4 6 m 1
 4 5 l 1
 4 4 l 1
 3 4 l 1
 2 4 l 1
 1 4 l 1
 1 3 l 1
 2 3 l 1
 3 3 l 1
 4 3 l 1
 4 2 l 1
 4 1 l 1
 5 1 l 1
 5 2 l 1
 5 3 l 1
 5 4 l 1
 5 5 l 1
 5 6 l 1
 4 6 l 1
4 1 m 1
 3 1 l 1
 2 1 l 1
 1 1 l 1
 1 0 l 1
 2 0 l 1
 3 0 l 1
 4 0 l 1
 4 1 l 1
1 4 m 1
 1 5 l 1
 1 6 l 1
 0 6 l 1
 0 5 l 1
 0 4 l 1
 1 4 l 1
EndSplineSet
EndChar

StartChar: colon
Encoding: 58 58 26
Width: 6
VWidth: 9
Flags: W
HStem: 1 1<2 3> 5 1<2 3>
VStem: 2 1<1 2 5 6>
LayerCount: 2
Fore
SplineSet
2 6 m 1
 3 6 l 1
 3 5 l 1
 2 5 l 1
 2 6 l 1
2 2 m 1
 3 2 l 1
 3 1 l 1
 2 1 l 1
 2 2 l 1
EndSplineSet
EndChar

StartChar: semicolon
Encoding: 59 59 27
Width: 6
VWidth: 9
Flags: W
HStem: 0 21G<2 3> 0 21G<2 3> 5 1<2 3>
VStem: 2 1<0 2 5 6>
LayerCount: 2
Fore
SplineSet
2 6 m 1x30
 3 6 l 1
 3 5 l 1
 2 5 l 1
 2 6 l 1x30
2 2 m 1
 3 2 l 1
 3 1 l 1
 3 0 l 1
 2 0 l 1x90
 2 1 l 1
 2 2 l 1
EndSplineSet
EndChar

StartChar: less
Encoding: 60 60 28
Width: 6
VWidth: 9
Flags: W
HStem: 6 1<3 4>
VStem: 3 1<6 7>
LayerCount: 2
Fore
SplineSet
3 7 m 1
 4 7 l 1
 4 6 l 1
 3 6 l 1
 3 7 l 1
3 6 m 1
 2 6 l 1
 2 5 l 1
 3 5 l 1
 3 6 l 1
2 5 m 1
 1 5 l 1
 1 4 l 1
 2 4 l 1
 2 5 l 1
1 4 m 1
 0 4 l 1
 0 3 l 1
 1 3 l 1
 1 4 l 1
1 3 m 1
 1 2 l 1
 2 2 l 1
 2 3 l 1
 1 3 l 1
2 2 m 1
 2 1 l 1
 3 1 l 1
 3 2 l 1
 2 2 l 1
3 1 m 1
 3 0 l 1
 4 0 l 1
 4 1 l 1
 3 1 l 1
EndSplineSet
EndChar

StartChar: equal
Encoding: 61 61 29
Width: 6
VWidth: 9
Flags: W
HStem: 2 1<0 5> 4 1<0 5>
LayerCount: 2
Fore
SplineSet
0 5 m 1
 1 5 l 1
 2 5 l 1
 3 5 l 1
 4 5 l 1
 5 5 l 1
 5 4 l 1
 4 4 l 1
 3 4 l 1
 2 4 l 1
 1 4 l 1
 0 4 l 1
 0 5 l 1
0 3 m 1
 1 3 l 1
 2 3 l 1
 3 3 l 1
 4 3 l 1
 5 3 l 1
 5 2 l 1
 4 2 l 1
 3 2 l 1
 2 2 l 1
 1 2 l 1
 0 2 l 1
 0 3 l 1
EndSplineSet
EndChar

StartChar: greater
Encoding: 62 62 30
Width: 6
VWidth: 9
Flags: W
HStem: 6 1<1 2>
VStem: 1 1<6 7>
LayerCount: 2
Fore
SplineSet
1 7 m 1
 2 7 l 1
 2 6 l 1
 1 6 l 1
 1 7 l 1
2 6 m 1
 2 5 l 1
 3 5 l 1
 3 6 l 1
 2 6 l 1
3 5 m 1
 3 4 l 1
 4 4 l 1
 4 5 l 1
 3 5 l 1
4 4 m 1
 4 3 l 1
 5 3 l 1
 5 4 l 1
 4 4 l 1
4 3 m 1
 3 3 l 1
 3 2 l 1
 4 2 l 1
 4 3 l 1
3 2 m 1
 2 2 l 1
 2 1 l 1
 3 1 l 1
 3 2 l 1
2 1 m 1
 1 1 l 1
 1 0 l 1
 2 0 l 1
 2 1 l 1
EndSplineSet
EndChar

StartChar: question
Encoding: 63 63 31
Width: 6
VWidth: 9
Flags: W
HStem: 0 1<2 3> 6 1<1 4>
VStem: 2 1<0 1>
LayerCount: 2
Fore
SplineSet
1 7 m 1
 2 7 l 1
 3 7 l 1
 4 7 l 1
 4 6 l 1
 3 6 l 1
 2 6 l 1
 1 6 l 1
 1 7 l 1
4 6 m 1
 4 5 l 1
 4 4 l 1
 5 4 l 1
 5 5 l 1
 5 6 l 1
 4 6 l 1
4 4 m 1
 3 4 l 1
 3 3 l 1
 4 3 l 1
 4 4 l 1
3 3 m 1
 2 3 l 1
 2 2 l 1
 3 2 l 1
 3 3 l 1
1 6 m 1
 0 6 l 1
 0 5 l 1
 1 5 l 1
 1 6 l 1
2 1 m 1
 3 1 l 1
 3 0 l 1
 2 0 l 1
 2 1 l 1
EndSplineSet
EndChar

StartChar: at
Encoding: 64 64 32
Width: 6
VWidth: 9
Flags: W
HStem: 0 1<1 5> 2 3<2 5> 4 1<1 2>
VStem: 0 1<1 4>
LayerCount: 2
Fore
SplineSet
0 5 m 1xb0
 1 5 l 1xb0
 2 5 l 1
 3 5 l 1
 4 5 l 1
 5 5 l 1xd0
 5 4 l 1xb0
 5 3 l 1
 5 2 l 1
 4 2 l 1
 3 2 l 1
 2 2 l 1xd0
 2 3 l 1
 2 4 l 1
 1 4 l 1xb0
 1 3 l 1
 1 2 l 1
 1 1 l 1
 2 1 l 1
 3 1 l 1
 4 1 l 1
 5 1 l 1
 5 0 l 1
 4 0 l 1
 3 0 l 1
 2 0 l 1
 1 0 l 1
 0 0 l 1
 0 1 l 1
 0 2 l 1xd0
 0 3 l 1
 0 4 l 1
 0 5 l 1xb0
EndSplineSet
EndChar

StartChar: A
Encoding: 65 65 33
Width: 6
VWidth: 9
Flags: W
HStem: 4 21G<1 4> 6 1<1 4>
LayerCount: 2
Fore
SplineSet
1 7 m 1x40
 2 7 l 1
 3 7 l 1
 4 7 l 1
 4 6 l 1
 3 6 l 1
 2 6 l 1
 1 6 l 1
 1 7 l 1x40
4 6 m 1
 4 5 l 1
 4 4 l 1
 3 4 l 1
 2 4 l 1
 1 4 l 1x80
 1 5 l 1
 1 6 l 1
 0 6 l 1x40
 0 5 l 1
 0 4 l 1
 0 3 l 1
 0 2 l 1
 0 1 l 1
 0 0 l 1
 1 0 l 1
 1 1 l 1
 1 2 l 1
 1 3 l 1
 2 3 l 1
 3 3 l 1
 4 3 l 1
 4 2 l 1
 4 1 l 1
 4 0 l 1
 5 0 l 1
 5 1 l 1
 5 2 l 1
 5 3 l 1
 5 4 l 1x80
 5 5 l 1
 5 6 l 1
 4 6 l 1
EndSplineSet
EndChar

StartChar: B
Encoding: 66 66 34
Width: 6
VWidth: 9
Flags: W
HStem: 0 1<1 4> 3 1<1 4> 6 1<1 4>
VStem: 0 4<0 1 3 4 6 7> 0 1<1 3 4 6>
CounterMasks: 1 e0
LayerCount: 2
Fore
SplineSet
0 7 m 1xf0
 1 7 l 1xe8
 2 7 l 1
 3 7 l 1
 4 7 l 1
 4 6 l 1xf0
 3 6 l 1
 2 6 l 1
 1 6 l 1
 1 5 l 1
 1 4 l 1xe8
 2 4 l 1
 3 4 l 1
 4 4 l 1
 4 3 l 1xf0
 3 3 l 1
 2 3 l 1
 1 3 l 1
 1 2 l 1
 1 1 l 1xe8
 2 1 l 1
 3 1 l 1
 4 1 l 1
 4 0 l 1xf0
 3 0 l 1
 2 0 l 1
 1 0 l 1xe8
 0 0 l 1
 0 1 l 1xf0
 0 2 l 1xe8
 0 3 l 1
 0 4 l 1xf0
 0 5 l 1xe8
 0 6 l 1
 0 7 l 1xf0
4 6 m 1xf0
 4 5 l 1
 4 4 l 1
 5 4 l 1
 5 5 l 1
 5 6 l 1
 4 6 l 1xf0
4 3 m 1
 4 2 l 1
 4 1 l 1
 5 1 l 1
 5 2 l 1
 5 3 l 1
 4 3 l 1
EndSplineSet
EndChar

StartChar: C
Encoding: 67 67 35
Width: 6
VWidth: 9
Flags: W
HStem: 6 1<1 5>
LayerCount: 2
Fore
SplineSet
1 7 m 1
 2 7 l 1
 3 7 l 1
 4 7 l 1
 5 7 l 1
 5 6 l 1
 4 6 l 1
 3 6 l 1
 2 6 l 1
 1 6 l 1
 1 7 l 1
1 6 m 1
 0 6 l 1
 0 5 l 1
 0 4 l 1
 0 3 l 1
 0 2 l 1
 0 1 l 1
 1 1 l 1
 1 2 l 1
 1 3 l 1
 1 4 l 1
 1 5 l 1
 1 6 l 1
1 1 m 1
 1 0 l 1
 2 0 l 1
 3 0 l 1
 4 0 l 1
 5 0 l 1
 5 1 l 1
 4 1 l 1
 3 1 l 1
 2 1 l 1
 1 1 l 1
EndSplineSet
EndChar

StartChar: D
Encoding: 68 68 36
Width: 6
VWidth: 9
Flags: W
HStem: 0 1<1 4> 6 1<1 4>
VStem: 0 1<1 6>
LayerCount: 2
Fore
SplineSet
0 7 m 1
 1 7 l 1
 2 7 l 1
 3 7 l 1
 4 7 l 1
 4 6 l 1
 3 6 l 1
 2 6 l 1
 1 6 l 1
 1 5 l 1
 1 4 l 1
 1 3 l 1
 1 2 l 1
 1 1 l 1
 2 1 l 1
 3 1 l 1
 4 1 l 1
 4 0 l 1
 3 0 l 1
 2 0 l 1
 1 0 l 1
 0 0 l 1
 0 1 l 1
 0 2 l 1
 0 3 l 1
 0 4 l 1
 0 5 l 1
 0 6 l 1
 0 7 l 1
4 6 m 1
 4 5 l 1
 4 4 l 1
 4 3 l 1
 4 2 l 1
 4 1 l 1
 5 1 l 1
 5 2 l 1
 5 3 l 1
 5 4 l 1
 5 5 l 1
 5 6 l 1
 4 6 l 1
EndSplineSet
EndChar

StartChar: E
Encoding: 69 69 37
Width: 6
VWidth: 9
Flags: W
HStem: 0 1<1 5> 3 1<1 3> 6 1<1 5>
VStem: 0 1<1 3 4 6>
CounterMasks: 1 e0
LayerCount: 2
Fore
SplineSet
0 7 m 1
 1 7 l 1
 2 7 l 1
 3 7 l 1
 4 7 l 1
 5 7 l 1
 5 6 l 1
 4 6 l 1
 3 6 l 1
 2 6 l 1
 1 6 l 1
 1 5 l 1
 1 4 l 1
 2 4 l 1
 3 4 l 1
 3 3 l 1
 2 3 l 1
 1 3 l 1
 1 2 l 1
 1 1 l 1
 2 1 l 1
 3 1 l 1
 4 1 l 1
 5 1 l 1
 5 0 l 1
 4 0 l 1
 3 0 l 1
 2 0 l 1
 1 0 l 1
 0 0 l 1
 0 1 l 1
 0 2 l 1
 0 3 l 1
 0 4 l 1
 0 5 l 1
 0 6 l 1
 0 7 l 1
EndSplineSet
EndChar

StartChar: F
Encoding: 70 70 38
Width: 6
VWidth: 9
Flags: W
HStem: 0 21G<0 1> 0 21G<0 1> 3 1<1 3> 6 1<1 5>
VStem: 0 1<0 3 4 6>
LayerCount: 2
Fore
SplineSet
0 7 m 1x38
 1 7 l 1
 2 7 l 1
 3 7 l 1
 4 7 l 1
 5 7 l 1
 5 6 l 1
 4 6 l 1
 3 6 l 1
 2 6 l 1
 1 6 l 1
 1 5 l 1
 1 4 l 1
 2 4 l 1
 3 4 l 1
 3 3 l 1
 2 3 l 1
 1 3 l 1x38
 1 2 l 1
 1 1 l 1
 1 0 l 1
 0 0 l 1x88
 0 1 l 1
 0 2 l 1
 0 3 l 1
 0 4 l 1
 0 5 l 1
 0 6 l 1
 0 7 l 1x38
EndSplineSet
EndChar

StartChar: G
Encoding: 71 71 39
Width: 6
VWidth: 9
Flags: W
HStem: 6 1<1 5>
LayerCount: 2
Fore
SplineSet
1 7 m 1
 2 7 l 1
 3 7 l 1
 4 7 l 1
 5 7 l 1
 5 6 l 1
 4 6 l 1
 3 6 l 1
 2 6 l 1
 1 6 l 1
 1 7 l 1
1 6 m 1
 0 6 l 1
 0 5 l 1
 0 4 l 1
 0 3 l 1
 0 2 l 1
 0 1 l 1
 1 1 l 1
 1 2 l 1
 1 3 l 1
 1 4 l 1
 1 5 l 1
 1 6 l 1
1 1 m 1
 1 0 l 1
 2 0 l 1
 3 0 l 1
 4 0 l 1
 4 1 l 1
 3 1 l 1
 2 1 l 1
 1 1 l 1
4 1 m 1
 5 1 l 1
 5 2 l 1
 5 3 l 1
 5 4 l 1
 4 4 l 1
 3 4 l 1
 2 4 l 1
 2 3 l 1
 3 3 l 1
 4 3 l 1
 4 2 l 1
 4 1 l 1
EndSplineSet
EndChar

StartChar: H
Encoding: 72 72 40
Width: 6
VWidth: 9
Flags: W
HStem: -13 20G<0 1 4 5> -13 20G<0 1 4 5> 0 21G<0 1 4 5> 0 21G<0 1 4 5> 3 1<1 4>
VStem: 0 1<0 3 4 7> 4 1<0 3 4 7>
LayerCount: 2
Fore
SplineSet
0 7 m 1x86
 1 7 l 1x86
 1 6 l 1
 1 5 l 1
 1 4 l 1
 2 4 l 1
 3 4 l 1
 4 4 l 1x0e
 4 5 l 1
 4 6 l 1
 4 7 l 1
 5 7 l 1x86
 5 6 l 1
 5 5 l 1
 5 4 l 1
 5 3 l 1x0e
 5 2 l 1
 5 1 l 1
 5 0 l 1
 4 0 l 1x26
 4 1 l 1
 4 2 l 1
 4 3 l 1
 3 3 l 1
 2 3 l 1
 1 3 l 1x0e
 1 2 l 1
 1 1 l 1
 1 0 l 1
 0 0 l 1x26
 0 1 l 1
 0 2 l 1
 0 3 l 1
 0 4 l 1x0e
 0 5 l 1
 0 6 l 1
 0 7 l 1x86
EndSplineSet
EndChar

StartChar: I
Encoding: 73 73 41
Width: 6
VWidth: 9
Flags: W
HStem: 0 1<0 2 3 5> 6 1<0 2 3 5>
VStem: 2 1<1 6>
LayerCount: 2
Fore
SplineSet
0 7 m 1
 1 7 l 1
 2 7 l 1
 3 7 l 1
 4 7 l 1
 5 7 l 1
 5 6 l 1
 4 6 l 1
 3 6 l 1
 3 5 l 1
 3 4 l 1
 3 3 l 1
 3 2 l 1
 3 1 l 1
 4 1 l 1
 5 1 l 1
 5 0 l 1
 4 0 l 1
 3 0 l 1
 2 0 l 1
 1 0 l 1
 0 0 l 1
 0 1 l 1
 1 1 l 1
 2 1 l 1
 2 2 l 1
 2 3 l 1
 2 4 l 1
 2 5 l 1
 2 6 l 1
 1 6 l 1
 0 6 l 1
 0 7 l 1
EndSplineSet
EndChar

StartChar: J
Encoding: 74 74 42
Width: 6
VWidth: 9
Flags: W
HStem: -13 20G<4 5> -13 20G<4 5> 1 21G<4 5> 1 21G<4 5>
VStem: 4 1<1 7>
LayerCount: 2
Fore
SplineSet
4 7 m 1x88
 5 7 l 1x88
 5 6 l 1
 5 5 l 1
 5 4 l 1
 5 3 l 1
 5 2 l 1
 5 1 l 1
 4 1 l 1x28
 4 2 l 1
 4 3 l 1
 4 4 l 1
 4 5 l 1
 4 6 l 1
 4 7 l 1x88
4 1 m 1x28
 3 1 l 1
 2 1 l 1
 1 1 l 1x18
 1 0 l 1
 2 0 l 1
 3 0 l 1
 4 0 l 1
 4 1 l 1x28
1 1 m 1
 1 2 l 1
 0 2 l 1
 0 1 l 1
 1 1 l 1
EndSplineSet
EndChar

StartChar: K
Encoding: 75 75 43
Width: 6
VWidth: 9
Flags: W
HStem: -13 20G<0 1 4 5> -13 20G<0 1 4 5> 0 21G<0 1> 0 21G<0 1> 3 1<1 3> 5 21G<4 5>
VStem: 0 1<0 3 4 7>
LayerCount: 2
Fore
SplineSet
0 7 m 1x82
 1 7 l 1x82
 1 6 l 1
 1 5 l 1
 1 4 l 1
 2 4 l 1
 3 4 l 1
 3 3 l 1
 2 3 l 1
 1 3 l 1x0e
 1 2 l 1
 1 1 l 1
 1 0 l 1
 0 0 l 1x22
 0 1 l 1
 0 2 l 1
 0 3 l 1
 0 4 l 1
 0 5 l 1x0e
 0 6 l 1
 0 7 l 1x82
3 4 m 1x0e
 4 4 l 1
 4 5 l 1
 3 5 l 1
 3 4 l 1x0e
4 5 m 1
 4 6 l 1
 4 7 l 1
 5 7 l 1x82
 5 6 l 1
 5 5 l 1
 4 5 l 1
3 3 m 1x0a
 3 2 l 1
 4 2 l 1
 4 3 l 1
 3 3 l 1x0a
4 2 m 1
 4 1 l 1
 4 0 l 1
 5 0 l 1x12
 5 1 l 1
 5 2 l 1
 4 2 l 1
EndSplineSet
EndChar

StartChar: L
Encoding: 76 76 44
Width: 6
VWidth: 9
Flags: W
HStem: -13 20G<0 1> -13 20G<0 1> 0 1<1 5>
VStem: 0 1<1 7>
LayerCount: 2
Fore
SplineSet
0 7 m 1x90
 1 7 l 1x90
 1 6 l 1
 1 5 l 1
 1 4 l 5
 1 3 l 1
 1 2 l 1
 1 1 l 1
 2 1 l 1
 3 1 l 1
 4 1 l 1
 5 1 l 1
 5 0 l 1
 4 0 l 1
 3 0 l 1
 2 0 l 1
 1 0 l 1
 0 0 l 1
 0 1 l 1x30
 0 2 l 1
 0 3 l 1
 0 4 l 1
 0 5 l 1
 0 6 l 1
 0 7 l 1x90
EndSplineSet
EndChar

StartChar: M
Encoding: 77 77 45
Width: 6
VWidth: 9
Flags: W
HStem: -13 20G<0 1 4 5> -13 20G<0 1 4 5> 0 21G<0 1 4 5> 0 21G<0 1 4 5> 5 1<1 2 3 4>
VStem: 0 1<0 5 6 7> 4 1<0 5 6 7>
LayerCount: 2
Fore
SplineSet
0 7 m 1x86
 1 7 l 1x86
 1 6 l 1
 2 6 l 1
 2 5 l 1
 1 5 l 1x0e
 1 4 l 1
 1 3 l 1
 1 2 l 1
 1 1 l 1
 1 0 l 1
 0 0 l 1x26
 0 1 l 1
 0 2 l 1
 0 3 l 1
 0 4 l 1
 0 5 l 1
 0 6 l 1x0e
 0 7 l 1x86
2 5 m 1x0e
 2 4 l 1
 3 4 l 1
 3 5 l 1
 2 5 l 1x0e
3 5 m 1
 3 6 l 1
 4 6 l 1x0e
 4 7 l 1
 5 7 l 1x86
 5 6 l 1
 5 5 l 1x0e
 5 4 l 1
 5 3 l 1
 5 2 l 1
 5 1 l 1
 5 0 l 1
 4 0 l 1x26
 4 1 l 1
 4 2 l 1
 4 3 l 1
 4 4 l 1
 4 5 l 1
 3 5 l 1
EndSplineSet
EndChar

StartChar: N
Encoding: 78 78 46
Width: 6
VWidth: 9
Flags: W
HStem: -13 20G<0 1 4 5> -13 20G<0 1 4 5> 0 21G<0 1 4 5> 0 21G<0 1 4 5> 3 1<3 4> 5 1<1 2>
VStem: 0 1<0 5 6 7> 4 1<0 3 4 7>
LayerCount: 2
Fore
SplineSet
0 7 m 1x83
 1 7 l 1x83
 1 6 l 1
 2 6 l 1
 2 5 l 1
 1 5 l 1
 1 4 l 1
 1 3 l 1x0f
 1 2 l 1
 1 1 l 1
 1 0 l 1
 0 0 l 1x23
 0 1 l 1
 0 2 l 1
 0 3 l 1
 0 4 l 1
 0 5 l 1
 0 6 l 1x0f
 0 7 l 1x83
2 5 m 1x0f
 2 4 l 1
 3 4 l 1
 3 5 l 1
 2 5 l 1x0f
3 4 m 1
 4 4 l 1
 4 5 l 1
 4 6 l 1x0f
 4 7 l 1
 5 7 l 1x83
 5 6 l 1
 5 5 l 1
 5 4 l 1
 5 3 l 5x0f
 5 2 l 1
 5 1 l 1
 5 0 l 1
 4 0 l 1x23
 4 1 l 1
 4 2 l 1
 4 3 l 1
 3 3 l 1
 3 4 l 1
EndSplineSet
EndChar

StartChar: O
Encoding: 79 79 47
Width: 6
VWidth: 9
Flags: W
HStem: 6 1<1 4>
LayerCount: 2
Fore
SplineSet
1 7 m 1
 2 7 l 1
 3 7 l 1
 4 7 l 1
 4 6 l 1
 3 6 l 1
 2 6 l 1
 1 6 l 1
 1 7 l 1
4 6 m 1
 4 5 l 1
 4 4 l 1
 4 3 l 1
 4 2 l 1
 4 1 l 1
 5 1 l 1
 5 2 l 1
 5 3 l 1
 5 4 l 1
 5 5 l 1
 5 6 l 1
 4 6 l 1
4 1 m 1
 3 1 l 1
 2 1 l 1
 1 1 l 1
 1 0 l 1
 2 0 l 1
 3 0 l 1
 4 0 l 1
 4 1 l 1
1 1 m 1
 1 2 l 1
 1 3 l 1
 1 4 l 1
 1 5 l 1
 1 6 l 1
 0 6 l 1
 0 5 l 1
 0 4 l 1
 0 3 l 1
 0 2 l 1
 0 1 l 1
 1 1 l 1
EndSplineSet
EndChar

StartChar: P
Encoding: 80 80 48
Width: 6
VWidth: 9
Flags: W
HStem: 0 21G<0 1> 0 21G<0 1> 3 1<1 4> 6 1<1 4>
VStem: 0 1<0 3 4 6>
LayerCount: 2
Fore
SplineSet
0 7 m 1x38
 1 7 l 1
 2 7 l 1
 3 7 l 1
 4 7 l 1
 4 6 l 1
 3 6 l 1
 2 6 l 1
 1 6 l 1
 1 5 l 1
 1 4 l 1
 2 4 l 1
 3 4 l 1
 4 4 l 1
 4 3 l 1
 3 3 l 1
 2 3 l 1
 1 3 l 1x38
 1 2 l 1
 1 1 l 1
 1 0 l 1
 0 0 l 1x88
 0 1 l 1
 0 2 l 1
 0 3 l 1
 0 4 l 1
 0 5 l 1
 0 6 l 1
 0 7 l 1x38
4 6 m 1
 4 5 l 1
 4 4 l 1
 5 4 l 1
 5 5 l 1
 5 6 l 1
 4 6 l 1
EndSplineSet
EndChar

StartChar: Q
Encoding: 81 81 49
Width: 6
VWidth: 9
Flags: W
HStem: 6 1<1 4>
LayerCount: 2
Fore
SplineSet
1 7 m 1
 2 7 l 1
 3 7 l 1
 4 7 l 1
 4 6 l 1
 3 6 l 1
 2 6 l 1
 1 6 l 1
 1 7 l 1
4 6 m 1
 4 5 l 1
 4 4 l 1
 4 3 l 1
 4 2 l 1
 5 2 l 1
 5 3 l 1
 5 4 l 1
 5 5 l 1
 5 6 l 1
 4 6 l 1
4 2 m 1
 3 2 l 1
 3 1 l 1
 4 1 l 1
 4 2 l 1
4 1 m 1
 4 0 l 1
 5 0 l 1
 5 1 l 1
 4 1 l 1
3 1 m 1
 2 1 l 1
 1 1 l 1
 1 0 l 1
 2 0 l 1
 3 0 l 1
 3 1 l 1
1 1 m 1
 1 2 l 1
 1 3 l 1
 1 4 l 1
 1 5 l 1
 1 6 l 1
 0 6 l 1
 0 5 l 1
 0 4 l 1
 0 3 l 1
 0 2 l 1
 0 1 l 1
 1 1 l 1
3 2 m 1
 3 3 l 1
 2 3 l 1
 2 2 l 1
 3 2 l 1
EndSplineSet
EndChar

StartChar: R
Encoding: 82 82 50
Width: 6
VWidth: 9
Flags: W
HStem: 0 21G<0 1> 0 21G<0 1> 3 1<2 4> 6 1<1 4>
VStem: 0 1<0 2 4 6>
LayerCount: 2
Fore
SplineSet
0 7 m 1x38
 1 7 l 1
 2 7 l 1
 3 7 l 1
 4 7 l 1
 4 6 l 1
 3 6 l 1
 2 6 l 1
 1 6 l 1
 1 5 l 1
 1 4 l 1
 2 4 l 1
 3 4 l 1
 4 4 l 1
 4 3 l 1
 3 3 l 1
 2 3 l 1x38
 2 2 l 1
 1 2 l 1
 1 1 l 1
 1 0 l 1
 0 0 l 1x88
 0 1 l 1
 0 2 l 1
 0 3 l 1
 0 4 l 1
 0 5 l 1
 0 6 l 1
 0 7 l 1x38
4 6 m 1
 4 5 l 1
 4 4 l 1
 5 4 l 1
 5 5 l 1
 5 6 l 1
 4 6 l 1
2 2 m 1
 2 1 l 1
 3 1 l 1
 3 2 l 1
 2 2 l 1
3 1 m 1
 3 0 l 1
 4 0 l 1x48
 4 1 l 1
 3 1 l 1
EndSplineSet
EndChar

StartChar: S
Encoding: 83 83 51
Width: 6
VWidth: 9
Flags: W
HStem: 6 1<1 4>
LayerCount: 2
Fore
SplineSet
1 7 m 1
 2 7 l 1
 3 7 l 1
 4 7 l 1
 4 6 l 1
 3 6 l 1
 2 6 l 1
 1 6 l 1
 1 7 l 1
4 6 m 1
 4 5 l 1
 5 5 l 1
 5 6 l 1
 4 6 l 1
1 6 m 1
 0 6 l 1
 0 5 l 1
 0 4 l 1
 1 4 l 1
 1 5 l 1
 1 6 l 1
1 4 m 1
 1 3 l 1
 2 3 l 1
 3 3 l 1
 4 3 l 1
 4 4 l 1
 3 4 l 1
 2 4 l 1
 1 4 l 1
4 3 m 1
 4 2 l 1
 4 1 l 1
 5 1 l 1
 5 2 l 1
 5 3 l 1
 4 3 l 1
4 1 m 1
 3 1 l 1
 2 1 l 1
 1 1 l 1
 1 0 l 1
 2 0 l 1
 3 0 l 1
 4 0 l 1
 4 1 l 1
1 1 m 1
 1 2 l 1
 0 2 l 1
 0 1 l 1
 1 1 l 1
EndSplineSet
EndChar

StartChar: T
Encoding: 84 84 52
Width: 6
VWidth: 9
Flags: W
HStem: 0 21G<2 3> 0 21G<2 3> 6 1<0 2 3 5>
VStem: 2 1<0 6>
LayerCount: 2
Fore
SplineSet
0 7 m 1x30
 1 7 l 1
 2 7 l 1
 3 7 l 1
 4 7 l 1
 5 7 l 1
 5 6 l 1
 4 6 l 1
 3 6 l 1x30
 3 5 l 1
 3 4 l 1
 3 3 l 1
 3 2 l 1
 3 1 l 1
 3 0 l 1
 2 0 l 1x90
 2 1 l 1
 2 2 l 1
 2 3 l 1
 2 4 l 1
 2 5 l 1
 2 6 l 1
 1 6 l 1
 0 6 l 1
 0 7 l 1x30
EndSplineSet
EndChar

StartChar: U
Encoding: 85 85 53
Width: 6
VWidth: 9
Flags: W
HStem: -13 20G<0 1 4 5> -13 20G<0 1 4 5> 1 21G<0 1 4 5> 1 21G<0 1 4 5>
VStem: 0 1<1 7> 4 1<1 7>
LayerCount: 2
Fore
SplineSet
0 7 m 1x8c
 1 7 l 1x8c
 1 6 l 1
 1 5 l 1
 1 4 l 1
 1 3 l 1
 1 2 l 1
 1 1 l 1
 0 1 l 1x2c
 0 2 l 1
 0 3 l 1
 0 4 l 1
 0 5 l 1
 0 6 l 1
 0 7 l 1x8c
1 1 m 1x2c
 1 0 l 1
 2 0 l 1
 3 0 l 1
 4 0 l 1
 4 1 l 1x2c
 3 1 l 1
 2 1 l 1x1c
 1 1 l 1x2c
4 1 m 1
 4 2 l 1
 4 3 l 1
 4 4 l 1
 4 5 l 1
 4 6 l 1
 4 7 l 1
 5 7 l 1x8c
 5 6 l 1
 5 5 l 1
 5 4 l 1
 5 3 l 1
 5 2 l 1
 5 1 l 1
 4 1 l 1
EndSplineSet
EndChar

StartChar: V
Encoding: 86 86 54
Width: 6
VWidth: 9
Flags: W
HStem: -13 20G<0 1 4 5> -13 20G<0 1 4 5>
VStem: 0 1<2 7> 4 1<2 7>
LayerCount: 2
Fore
SplineSet
0 7 m 1xb0
 1 7 l 1
 1 6 l 1
 1 5 l 1
 1 4 l 1
 1 3 l 1
 1 2 l 1
 0 2 l 1
 0 3 l 1
 0 4 l 1
 0 5 l 1
 0 6 l 1
 0 7 l 1xb0
1 2 m 1
 1 1 l 1
 2 1 l 1
 2 2 l 1
 1 2 l 1
2 1 m 1
 2 0 l 1
 3 0 l 1
 3 1 l 1
 2 1 l 1
3 1 m 1
 4 1 l 1
 4 2 l 1
 3 2 l 1
 3 1 l 1
4 2 m 1
 4 3 l 1
 4 4 l 1
 4 5 l 1
 4 6 l 1
 4 7 l 1
 5 7 l 1
 5 6 l 1
 5 5 l 1
 5 4 l 1
 5 3 l 1
 5 2 l 1
 4 2 l 1
EndSplineSet
EndChar

StartChar: W
Encoding: 87 87 55
Width: 6
VWidth: 9
Flags: W
HStem: -13 20G<0 1 4 5> -13 20G<0 1 4 5> 0 21G<0 1 4 5> 0 21G<0 1 4 5> 1 1<1 2 3 4>
VStem: 0 1<0 1 2 7> 4 1<0 1 2 7>
LayerCount: 2
Fore
SplineSet
0 7 m 1x86
 1 7 l 1x86
 1 6 l 1
 1 5 l 1
 1 4 l 1
 1 3 l 1
 1 2 l 1
 2 2 l 1
 2 1 l 1
 1 1 l 1x0e
 1 0 l 1
 0 0 l 1x26
 0 1 l 1
 0 2 l 1x0e
 0 3 l 1
 0 4 l 1
 0 5 l 1
 0 6 l 1
 0 7 l 1x86
2 2 m 1x0e
 3 2 l 1
 3 3 l 1
 2 3 l 1
 2 2 l 1x0e
3 2 m 1
 4 2 l 1x0e
 4 3 l 1
 4 4 l 1
 4 5 l 1
 4 6 l 1
 4 7 l 1
 5 7 l 1x86
 5 6 l 1
 5 5 l 1
 5 4 l 1
 5 3 l 1
 5 2 l 1
 5 1 l 1x0e
 5 0 l 1
 4 0 l 1x26
 4 1 l 1
 3 1 l 1
 3 2 l 1
EndSplineSet
EndChar

StartChar: X
Encoding: 88 88 56
Width: 6
VWidth: 9
Flags: W
HStem: 5 2<0 1 4 5>
VStem: 0 1<5 7> 4 1<5 7>
LayerCount: 2
Fore
SplineSet
0 7 m 1
 1 7 l 1
 1 6 l 1
 1 5 l 1
 0 5 l 1
 0 6 l 1
 0 7 l 1
1 5 m 1
 1 4 l 1
 2 4 l 1
 2 5 l 1
 1 5 l 1
2 4 m 1
 2 3 l 1
 3 3 l 1
 3 4 l 1
 2 4 l 1
3 4 m 1
 4 4 l 1
 4 5 l 1
 3 5 l 1
 3 4 l 1
4 5 m 1
 4 6 l 1
 4 7 l 1
 5 7 l 1
 5 6 l 1
 5 5 l 1
 4 5 l 1
3 3 m 1
 3 2 l 1
 4 2 l 1
 4 3 l 1
 3 3 l 1
4 2 m 1
 4 1 l 1
 4 0 l 1
 5 0 l 1
 5 1 l 1
 5 2 l 1
 4 2 l 1
2 3 m 1
 1 3 l 1
 1 2 l 1
 2 2 l 1
 2 3 l 1
1 2 m 1
 0 2 l 1
 0 1 l 1
 0 0 l 1
 1 0 l 1
 1 1 l 1
 1 2 l 1
EndSplineSet
EndChar

StartChar: Y
Encoding: 89 89 57
Width: 6
VWidth: 9
Flags: W
HStem: 5 2<0 1 4 5>
VStem: 0 1<5 7> 4 1<5 7>
LayerCount: 2
Fore
SplineSet
0 7 m 1
 1 7 l 1
 1 6 l 1
 1 5 l 1
 0 5 l 1
 0 6 l 1
 0 7 l 1
1 5 m 1
 1 4 l 1
 2 4 l 1
 2 5 l 1
 1 5 l 1
2 4 m 1
 2 3 l 1
 2 2 l 1
 2 1 l 1
 2 0 l 1
 3 0 l 1
 3 1 l 1
 3 2 l 1
 3 3 l 1
 3 4 l 1
 2 4 l 1
3 4 m 1
 4 4 l 1
 4 5 l 1
 3 5 l 1
 3 4 l 1
4 5 m 1
 4 6 l 1
 4 7 l 1
 5 7 l 1
 5 6 l 1
 5 5 l 1
 4 5 l 1
EndSplineSet
EndChar

StartChar: Z
Encoding: 90 90 58
Width: 6
VWidth: 9
Flags: W
HStem: 5 21G<4 5> 6 1<0 4>
VStem: 4 1<5 6>
LayerCount: 2
Fore
SplineSet
0 7 m 1x60
 1 7 l 1
 2 7 l 1
 3 7 l 1
 4 7 l 1
 5 7 l 1
 5 6 l 1x60
 5 5 l 1
 4 5 l 1xa0
 4 6 l 1
 3 6 l 1
 2 6 l 1
 1 6 l 1
 0 6 l 1
 0 7 l 1x60
4 5 m 1xa0
 3 5 l 1
 3 4 l 1
 4 4 l 1
 4 5 l 1xa0
3 4 m 1
 2 4 l 1
 2 3 l 1
 3 3 l 1
 3 4 l 1
2 3 m 1
 1 3 l 1
 1 2 l 1
 2 2 l 1
 2 3 l 1
1 2 m 1
 0 2 l 1
 0 1 l 1
 0 0 l 1
 1 0 l 1
 2 0 l 1
 3 0 l 1
 4 0 l 1
 5 0 l 1
 5 1 l 1
 4 1 l 1
 3 1 l 1
 2 1 l 1
 1 1 l 1
 1 2 l 1
EndSplineSet
EndChar

StartChar: bracketleft
Encoding: 91 91 59
Width: 6
VWidth: 9
Flags: W
HStem: 0 1<2 4> 6 1<2 4>
VStem: 1 1<1 6>
LayerCount: 2
Fore
SplineSet
1 7 m 1
 2 7 l 1
 3 7 l 1
 4 7 l 1
 4 6 l 1
 3 6 l 1
 2 6 l 1
 2 5 l 1
 2 4 l 1
 2 3 l 1
 2 2 l 1
 2 1 l 1
 3 1 l 1
 4 1 l 1
 4 0 l 1
 3 0 l 1
 2 0 l 1
 1 0 l 1
 1 1 l 1
 1 2 l 1
 1 3 l 1
 1 4 l 1
 1 5 l 1
 1 6 l 1
 1 7 l 1
EndSplineSet
EndChar

StartChar: backslash
Encoding: 92 92 60
Width: 6
VWidth: 9
Flags: W
HStem: 6 1<0 1>
VStem: 0 1<6 7>
LayerCount: 2
Fore
SplineSet
0 7 m 1
 1 7 l 1
 1 6 l 1
 0 6 l 1
 0 7 l 1
1 6 m 1
 1 5 l 1
 1 4 l 1
 2 4 l 1
 2 5 l 1
 2 6 l 1
 1 6 l 1
2 4 m 1
 2 3 l 1
 3 3 l 1
 3 4 l 1
 2 4 l 1
3 3 m 1
 3 2 l 1
 3 1 l 1
 4 1 l 1
 4 2 l 1
 4 3 l 1
 3 3 l 1
4 1 m 1
 4 0 l 1
 5 0 l 1
 5 1 l 1
 4 1 l 1
EndSplineSet
EndChar

StartChar: bracketright
Encoding: 93 93 61
Width: 6
VWidth: 9
Flags: W
HStem: 0 1<1 3> 6 1<1 3>
VStem: 3 1<1 6>
LayerCount: 2
Fore
SplineSet
1 7 m 1
 2 7 l 1
 3 7 l 1
 4 7 l 1
 4 6 l 1
 4 5 l 1
 4 4 l 1
 4 3 l 1
 4 2 l 1
 4 1 l 1
 4 0 l 1
 3 0 l 1
 2 0 l 1
 1 0 l 1
 1 1 l 1
 2 1 l 1
 3 1 l 1
 3 2 l 1
 3 3 l 1
 3 4 l 1
 3 5 l 1
 3 6 l 1
 2 6 l 1
 1 6 l 1
 1 7 l 1
EndSplineSet
EndChar

StartChar: asciicircum
Encoding: 94 94 62
Width: 6
VWidth: 9
Flags: W
HStem: 6 1<2 3>
VStem: 2 1<6 7>
LayerCount: 2
Fore
SplineSet
2 7 m 1
 3 7 l 1
 3 6 l 1
 2 6 l 1
 2 7 l 1
3 6 m 1
 3 5 l 1
 4 5 l 1
 4 6 l 1
 3 6 l 1
4 5 m 1
 4 4 l 1
 5 4 l 1
 5 5 l 1
 4 5 l 1
2 6 m 1
 1 6 l 1
 1 5 l 1
 2 5 l 1
 2 6 l 1
1 5 m 1
 0 5 l 1
 0 4 l 1
 1 4 l 1
 1 5 l 1
EndSplineSet
EndChar

StartChar: underscore
Encoding: 95 95 63
Width: 6
VWidth: 9
Flags: W
HStem: 0 1<0 5>
LayerCount: 2
Fore
SplineSet
0 1 m 1
 1 1 l 1
 2 1 l 1
 3 1 l 1
 4 1 l 1
 5 1 l 1
 5 0 l 1
 4 0 l 1
 3 0 l 1
 2 0 l 1
 1 0 l 1
 0 0 l 1
 0 1 l 1
EndSplineSet
EndChar

StartChar: grave
Encoding: 96 96 64
Width: 6
VWidth: 9
Flags: W
HStem: 6 1<1 2>
VStem: 1 1<6 7>
LayerCount: 2
Fore
SplineSet
1 7 m 1
 2 7 l 1
 2 6 l 1
 1 6 l 1
 1 7 l 1
2 6 m 1
 2 5 l 1
 3 5 l 1
 3 6 l 1
 2 6 l 1
EndSplineSet
EndChar

StartChar: a
Encoding: 97 97 65
Width: 6
VWidth: 9
Flags: W
HStem: 4 1<1 4>
LayerCount: 2
Fore
SplineSet
1 5 m 1
 2 5 l 1
 3 5 l 1
 4 5 l 1
 4 4 l 1
 3 4 l 1
 2 4 l 1
 1 4 l 1
 1 5 l 1
4 4 m 1
 4 3 l 1
 3 3 l 1
 2 3 l 1
 1 3 l 1
 1 2 l 1
 2 2 l 1
 3 2 l 1
 4 2 l 1
 4 1 l 1
 5 1 l 1
 5 2 l 1
 5 3 l 1
 5 4 l 1
 4 4 l 1
4 1 m 1
 3 1 l 1
 2 1 l 1
 1 1 l 1
 1 0 l 1
 2 0 l 1
 3 0 l 1
 4 0 l 1
 4 1 l 1
1 1 m 1
 1 2 l 1
 0 2 l 1
 0 1 l 1
 1 1 l 1
EndSplineSet
EndChar

StartChar: b
Encoding: 98 98 66
Width: 6
VWidth: 9
Flags: W
HStem: -13 20G<0 1> -13 20G<0 1> 1 21G<0 1> 1 21G<0 1> 4 1<1 4>
VStem: 0 1<1 4 5 7>
LayerCount: 2
Fore
SplineSet
0 7 m 1x84
 1 7 l 1x84
 1 6 l 1
 1 5 l 1
 2 5 l 1
 3 5 l 1
 4 5 l 1
 4 4 l 1
 3 4 l 1
 2 4 l 1
 1 4 l 1x0c
 1 3 l 1
 1 2 l 1
 1 1 l 1
 0 1 l 1x24
 0 2 l 1
 0 3 l 1
 0 4 l 1
 0 5 l 1x0c
 0 6 l 1
 0 7 l 1x84
4 4 m 1x0c
 4 3 l 1
 4 2 l 1
 4 1 l 1
 5 1 l 1x14
 5 2 l 1
 5 3 l 1
 5 4 l 1
 4 4 l 1x0c
4 1 m 1
 3 1 l 1
 2 1 l 1x14
 1 1 l 1x24
 1 0 l 1
 2 0 l 1
 3 0 l 1
 4 0 l 1
 4 1 l 1
EndSplineSet
EndChar

StartChar: c
Encoding: 99 99 67
Width: 6
VWidth: 9
Flags: W
HStem: 4 1<1 5>
LayerCount: 2
Fore
SplineSet
1 5 m 1
 2 5 l 1
 3 5 l 1
 4 5 l 1
 5 5 l 1
 5 4 l 1
 4 4 l 1
 3 4 l 1
 2 4 l 1
 1 4 l 1
 1 5 l 1
1 4 m 1
 0 4 l 1
 0 3 l 1
 0 2 l 1
 0 1 l 1
 1 1 l 1
 1 2 l 1
 1 3 l 1
 1 4 l 1
1 1 m 1
 1 0 l 1
 2 0 l 1
 3 0 l 1
 4 0 l 1
 5 0 l 1
 5 1 l 1
 4 1 l 1
 3 1 l 1
 2 1 l 1
 1 1 l 1
EndSplineSet
EndChar

StartChar: d
Encoding: 100 100 68
Width: 6
VWidth: 9
Flags: W
HStem: -13 20G<4 5> -13 20G<4 5> 1 21G<4 5> 1 21G<4 5> 4 1<1 4>
VStem: 4 1<1 4 5 7>
LayerCount: 2
Fore
SplineSet
4 7 m 1x84
 5 7 l 1x84
 5 6 l 1
 5 5 l 1
 5 4 l 1x0c
 5 3 l 1
 5 2 l 1
 5 1 l 1
 4 1 l 1x24
 4 2 l 1
 4 3 l 1
 4 4 l 1
 3 4 l 1
 2 4 l 1
 1 4 l 1
 1 5 l 1
 2 5 l 1
 3 5 l 1
 4 5 l 1x0c
 4 6 l 1
 4 7 l 1x84
4 1 m 1x24
 3 1 l 1
 2 1 l 1
 1 1 l 1x14
 1 0 l 1
 2 0 l 1
 3 0 l 1
 4 0 l 1
 4 1 l 1x24
1 1 m 1
 1 2 l 1
 1 3 l 1
 1 4 l 1
 0 4 l 1x0c
 0 3 l 1
 0 2 l 1
 0 1 l 1
 1 1 l 1
EndSplineSet
EndChar

StartChar: e
Encoding: 101 101 69
Width: 6
VWidth: 9
Flags: W
HStem: 4 1<1 4>
LayerCount: 2
Fore
SplineSet
1 5 m 1
 2 5 l 1
 3 5 l 1
 4 5 l 1
 4 4 l 1
 3 4 l 1
 2 4 l 1
 1 4 l 1
 1 5 l 1
4 4 m 1
 4 3 l 1
 3 3 l 1
 2 3 l 1
 1 3 l 1
 1 4 l 1
 0 4 l 1
 0 3 l 1
 0 2 l 1
 0 1 l 1
 1 1 l 1
 1 2 l 1
 2 2 l 1
 3 2 l 1
 4 2 l 1
 5 2 l 1
 5 3 l 1
 5 4 l 1
 4 4 l 1
1 1 m 1
 1 0 l 1
 2 0 l 1
 3 0 l 1
 4 0 l 1
 5 0 l 1
 5 1 l 1
 4 1 l 1
 3 1 l 1
 2 1 l 1
 1 1 l 1
EndSplineSet
EndChar

StartChar: f
Encoding: 102 102 70
Width: 6
VWidth: 9
Flags: W
HStem: 6 1<3 5>
LayerCount: 2
Fore
SplineSet
3 7 m 1
 4 7 l 1
 5 7 l 1
 5 6 l 1
 4 6 l 1
 3 6 l 1
 3 7 l 1
3 6 m 1
 2 6 l 1
 2 5 l 1
 2 4 l 1
 1 4 l 1
 0 4 l 1
 0 3 l 1
 1 3 l 1
 2 3 l 1
 2 2 l 1
 2 1 l 1
 2 0 l 1
 3 0 l 1
 3 1 l 1
 3 2 l 1
 3 3 l 1
 4 3 l 1
 5 3 l 1
 5 4 l 1
 4 4 l 1
 3 4 l 1
 3 5 l 1
 3 6 l 1
EndSplineSet
EndChar

StartChar: g
Encoding: 103 103 71
Width: 6
VWidth: 9
Flags: W
HStem: 1 21G<4 5> 1 21G<4 5> 3 1<1 4> 6 1<1 4>
VStem: 4 1<1 3 4 6>
LayerCount: 2
Fore
SplineSet
1 7 m 5x38
 2 7 l 5
 3 7 l 5
 4 7 l 5
 5 7 l 5
 5 6 l 5
 5 5 l 5
 5 4 l 5
 5 3 l 5x38
 5 2 l 5
 5 1 l 5
 4 1 l 5x88
 4 2 l 5
 4 3 l 5
 3 3 l 5
 2 3 l 5
 1 3 l 5
 1 4 l 5
 2 4 l 5
 3 4 l 5
 4 4 l 5
 4 5 l 5
 4 6 l 5
 3 6 l 5
 2 6 l 5
 1 6 l 5
 1 7 l 5x38
4 1 m 5x88
 3 1 l 5
 2 1 l 5
 1 1 l 5x48
 1 0 l 5
 2 0 l 5
 3 0 l 5
 4 0 l 5
 4 1 l 5x88
1 1 m 5
 1 2 l 5
 0 2 l 5
 0 1 l 5
 1 1 l 5
1 4 m 5x38
 1 5 l 5
 1 6 l 5
 0 6 l 5
 0 5 l 5
 0 4 l 5
 1 4 l 5x38
EndSplineSet
EndChar

StartChar: h
Encoding: 104 104 72
Width: 6
VWidth: 9
Flags: W
HStem: -13 20G<0 1> -13 20G<0 1> 0 21G<0 1> 0 21G<0 1> 4 1<1 4>
VStem: 0 1<0 4 5 7>
LayerCount: 2
Fore
SplineSet
0 7 m 1x84
 1 7 l 1x84
 1 6 l 1
 1 5 l 1
 2 5 l 1
 3 5 l 1
 4 5 l 1
 4 4 l 1
 3 4 l 1
 2 4 l 1
 1 4 l 1x0c
 1 3 l 1
 1 2 l 1
 1 1 l 1
 1 0 l 1
 0 0 l 1x24
 0 1 l 1
 0 2 l 1
 0 3 l 1
 0 4 l 1
 0 5 l 1x0c
 0 6 l 1
 0 7 l 1x84
4 4 m 1x0c
 4 3 l 1
 4 2 l 1
 4 1 l 1
 4 0 l 1
 5 0 l 1x14
 5 1 l 1
 5 2 l 1
 5 3 l 1
 5 4 l 1
 4 4 l 1x0c
EndSplineSet
EndChar

StartChar: i
Encoding: 105 105 73
Width: 6
VWidth: 9
Flags: W
HStem: 0 1<0 2 3 5> 6 1<2 3>
VStem: 2 1<1 4 6 7>
LayerCount: 2
Fore
SplineSet
2 7 m 1
 3 7 l 1
 3 6 l 1
 2 6 l 1
 2 7 l 1
1 5 m 1
 2 5 l 1
 3 5 l 1
 3 4 l 1
 3 3 l 1
 3 2 l 1
 3 1 l 1
 4 1 l 1
 5 1 l 1
 5 0 l 1
 4 0 l 1
 3 0 l 1
 2 0 l 1
 1 0 l 1
 0 0 l 1
 0 1 l 1
 1 1 l 1
 2 1 l 1
 2 2 l 1
 2 3 l 1
 2 4 l 1
 1 4 l 1
 1 5 l 1
EndSplineSet
EndChar

StartChar: j
Encoding: 106 106 74
Width: 6
VWidth: 9
Flags: W
HStem: -15 20G<4 5> 1 21G<4 5> 1 21G<4 5> 6 1<4 5>
VStem: 4 1<1 5 6 7>
LayerCount: 2
Fore
SplineSet
4 7 m 1x18
 5 7 l 1
 5 6 l 1
 4 6 l 1
 4 7 l 1x18
4 5 m 1x88
 5 5 l 1x88
 5 4 l 1
 5 3 l 1
 5 2 l 1
 5 1 l 1
 4 1 l 1x48
 4 2 l 1
 4 3 l 1
 4 4 l 1
 4 5 l 1x88
4 1 m 1x48
 3 1 l 1
 2 1 l 1
 1 1 l 1x28
 1 0 l 1
 2 0 l 1
 3 0 l 1
 4 0 l 1
 4 1 l 1x48
1 1 m 1
 1 2 l 1
 0 2 l 1
 0 1 l 1
 1 1 l 1
EndSplineSet
EndChar

StartChar: k
Encoding: 107 107 75
Width: 6
VWidth: 9
Flags: W
HStem: -13 20G<0 1> -13 20G<0 1> 0 21G<0 1> 0 21G<0 1> 2 1<1 3>
VStem: 0 1<0 2 3 7>
LayerCount: 2
Fore
SplineSet
0 7 m 1x84
 1 7 l 1x84
 1 6 l 1
 1 5 l 1
 1 4 l 1
 1 3 l 1
 2 3 l 1
 3 3 l 1
 3 2 l 1
 2 2 l 1
 1 2 l 1x0c
 1 1 l 1
 1 0 l 1
 0 0 l 1x24
 0 1 l 1
 0 2 l 1
 0 3 l 1x0c
 0 4 l 1
 0 5 l 1
 0 6 l 1
 0 7 l 1x84
3 3 m 1x0c
 4 3 l 1
 4 4 l 1
 3 4 l 1
 3 3 l 1x0c
4 4 m 1
 5 4 l 1
 5 5 l 1
 4 5 l 1
 4 4 l 1
3 2 m 1
 3 1 l 1
 4 1 l 1
 4 2 l 1
 3 2 l 1
4 1 m 1
 4 0 l 1
 5 0 l 1x14
 5 1 l 1
 4 1 l 1
EndSplineSet
EndChar

StartChar: l
Encoding: 108 108 76
Width: 6
VWidth: 9
Flags: W
HStem: 1 21G<2 3> 1 21G<2 3> 6 1<0 2>
VStem: 2 1<1 6>
LayerCount: 2
Fore
SplineSet
0 7 m 1x30
 1 7 l 1
 2 7 l 1
 3 7 l 1
 3 6 l 1x30
 3 5 l 1
 3 4 l 1
 3 3 l 1
 3 2 l 1
 3 1 l 1
 2 1 l 1x90
 2 2 l 1
 2 3 l 1
 2 4 l 1
 2 5 l 1
 2 6 l 1
 1 6 l 1
 0 6 l 1
 0 7 l 1x30
3 1 m 1x90
 3 0 l 1
 4 0 l 1
 5 0 l 1
 5 1 l 1
 4 1 l 1x50
 3 1 l 1x90
EndSplineSet
EndChar

StartChar: m
Encoding: 109 109 77
Width: 6
VWidth: 9
Flags: W
HStem: 0 21G<0 1> 0 21G<0 1> 4 1<1 2 3 4>
VStem: 0 1<0 4> 3 1<4 5>
LayerCount: 2
Fore
SplineSet
0 5 m 1x38
 1 5 l 1
 2 5 l 1
 2 4 l 1
 1 4 l 1x38
 1 3 l 1
 1 2 l 1
 1 1 l 1
 1 0 l 1
 0 0 l 1x98
 0 1 l 1
 0 2 l 1
 0 3 l 1
 0 4 l 1
 0 5 l 1x38
2 4 m 1
 2 3 l 1
 2 2 l 1
 2 1 l 1
 2 0 l 1
 3 0 l 1x58
 3 1 l 1
 3 2 l 1
 3 3 l 1
 3 4 l 1
 2 4 l 1
3 4 m 1x38
 3 5 l 1
 4 5 l 1
 4 4 l 1
 3 4 l 1x38
4 4 m 1
 4 3 l 1
 4 2 l 1
 4 1 l 1
 4 0 l 1
 5 0 l 1x58
 5 1 l 1
 5 2 l 1
 5 3 l 1
 5 4 l 1
 4 4 l 1
EndSplineSet
EndChar

StartChar: n
Encoding: 110 110 78
Width: 6
VWidth: 9
Flags: W
HStem: 0 21G<0 1> 0 21G<0 1> 4 1<1 4>
VStem: 0 1<0 4>
LayerCount: 2
Fore
SplineSet
0 5 m 1x30
 1 5 l 1
 2 5 l 1
 3 5 l 1
 4 5 l 1
 4 4 l 1
 3 4 l 1
 2 4 l 1
 1 4 l 1x30
 1 3 l 1
 1 2 l 1
 1 1 l 1
 1 0 l 1
 0 0 l 1x90
 0 1 l 1
 0 2 l 1
 0 3 l 1
 0 4 l 1
 0 5 l 1x30
4 4 m 1
 4 3 l 1
 4 2 l 1
 4 1 l 1
 4 0 l 1
 5 0 l 1x50
 5 1 l 1
 5 2 l 1
 5 3 l 1
 5 4 l 1
 4 4 l 1
EndSplineSet
EndChar

StartChar: o
Encoding: 111 111 79
Width: 6
VWidth: 9
Flags: W
HStem: 4 1<1 4>
LayerCount: 2
Fore
SplineSet
1 5 m 1
 2 5 l 1
 3 5 l 1
 4 5 l 1
 4 4 l 1
 3 4 l 1
 2 4 l 1
 1 4 l 1
 1 5 l 1
4 4 m 1
 4 3 l 1
 4 2 l 1
 4 1 l 1
 5 1 l 1
 5 2 l 1
 5 3 l 1
 5 4 l 1
 4 4 l 1
4 1 m 1
 3 1 l 1
 2 1 l 1
 1 1 l 1
 1 0 l 1
 2 0 l 1
 3 0 l 1
 4 0 l 1
 4 1 l 1
1 1 m 1
 1 2 l 1
 1 3 l 1
 1 4 l 1
 0 4 l 1
 0 3 l 1
 0 2 l 1
 0 1 l 1
 1 1 l 1
EndSplineSet
EndChar

StartChar: p
Encoding: 112 112 80
Width: 6
VWidth: 9
Flags: W
HStem: 0 21G<0 1> 0 21G<0 1> 2 1<1 4> 6 1<1 4>
VStem: 0 1<0 2 3 6>
LayerCount: 2
Fore
SplineSet
0 7 m 1x38
 1 7 l 1
 2 7 l 1
 3 7 l 1
 4 7 l 1
 4 6 l 1
 3 6 l 1
 2 6 l 1
 1 6 l 1
 1 5 l 1
 1 4 l 1
 1 3 l 1
 2 3 l 1
 3 3 l 1
 4 3 l 1
 4 2 l 1
 3 2 l 1
 2 2 l 1
 1 2 l 1x38
 1 1 l 1
 1 0 l 1
 0 0 l 1x88
 0 1 l 1
 0 2 l 1
 0 3 l 1
 0 4 l 1
 0 5 l 1
 0 6 l 1
 0 7 l 1x38
4 6 m 1
 4 5 l 1
 4 4 l 1
 4 3 l 1
 5 3 l 1
 5 4 l 1
 5 5 l 1
 5 6 l 1
 4 6 l 1
EndSplineSet
EndChar

StartChar: q
Encoding: 113 113 81
Width: 6
VWidth: 9
Flags: W
HStem: 0 21G<4 5> 0 21G<4 5> 2 1<1 4> 6 1<1 4>
VStem: 4 1<0 2 3 6>
LayerCount: 2
Fore
SplineSet
1 7 m 5x38
 2 7 l 5
 3 7 l 5
 4 7 l 5
 5 7 l 5
 5 6 l 5
 5 5 l 5
 5 4 l 5
 5 3 l 5
 5 2 l 5x38
 5 1 l 5
 5 0 l 5
 4 0 l 5x88
 4 1 l 5
 4 2 l 5
 3 2 l 5
 2 2 l 5
 1 2 l 5
 1 3 l 5
 2 3 l 5
 3 3 l 5
 4 3 l 5
 4 4 l 5
 4 5 l 5
 4 6 l 5
 3 6 l 5
 2 6 l 5
 1 6 l 5
 1 7 l 5x38
1 3 m 5
 1 4 l 5
 1 5 l 5
 1 6 l 5
 0 6 l 5
 0 5 l 5
 0 4 l 5
 0 3 l 5
 1 3 l 5
EndSplineSet
EndChar

StartChar: r
Encoding: 114 114 82
Width: 6
VWidth: 9
Flags: W
HStem: 0 21G<0 1> 0 21G<0 1> 3 1<1 2> 4 1<2 4>
VStem: 0 1<0 3 4 5>
LayerCount: 2
Fore
SplineSet
0 5 m 1x18
 1 5 l 1x18
 1 4 l 1
 2 4 l 1
 2 3 l 1
 1 3 l 1x28
 1 2 l 1
 1 1 l 1
 1 0 l 1
 0 0 l 1x88
 0 1 l 1
 0 2 l 1
 0 3 l 1x28
 0 4 l 1
 0 5 l 1x18
2 4 m 1x28
 2 5 l 1
 3 5 l 1
 4 5 l 1
 4 4 l 1
 3 4 l 1x18
 2 4 l 1x28
4 4 m 1
 4 3 l 1
 5 3 l 1x28
 5 4 l 1
 4 4 l 1
EndSplineSet
EndChar

StartChar: s
Encoding: 115 115 83
Width: 6
VWidth: 9
Flags: W
HStem: 4 1<1 5>
LayerCount: 2
Fore
SplineSet
1 5 m 1
 2 5 l 1
 3 5 l 1
 4 5 l 1
 5 5 l 1
 5 4 l 1
 4 4 l 1
 3 4 l 1
 2 4 l 1
 1 4 l 1
 1 5 l 1
1 4 m 1
 0 4 l 1
 0 3 l 1
 1 3 l 1
 1 4 l 1
1 3 m 1
 1 2 l 1
 2 2 l 1
 3 2 l 1
 4 2 l 1
 4 3 l 1
 3 3 l 1
 2 3 l 1
 1 3 l 1
4 2 m 1
 4 1 l 1
 5 1 l 1
 5 2 l 1
 4 2 l 1
4 1 m 1
 3 1 l 1
 2 1 l 1
 1 1 l 1
 0 1 l 1
 0 0 l 1
 1 0 l 1
 2 0 l 1
 3 0 l 1
 4 0 l 1
 4 1 l 1
EndSplineSet
EndChar

StartChar: t
Encoding: 116 116 84
Width: 6
VWidth: 9
Flags: W
HStem: -13 20G<2 3> -13 20G<2 3> 1 21G<2 3> 1 21G<2 3> 4 1<0 2 3 5>
VStem: 2 1<1 4 5 7>
LayerCount: 2
Fore
SplineSet
2 7 m 1x84
 3 7 l 1x84
 3 6 l 1
 3 5 l 1
 4 5 l 1
 5 5 l 1
 5 4 l 1
 4 4 l 1
 3 4 l 1x0c
 3 3 l 1
 3 2 l 1
 3 1 l 1
 2 1 l 1x24
 2 2 l 1
 2 3 l 1
 2 4 l 1
 1 4 l 1
 0 4 l 1
 0 5 l 1
 1 5 l 1
 2 5 l 1x0c
 2 6 l 1
 2 7 l 1x84
3 1 m 1x24
 3 0 l 1
 4 0 l 1
 5 0 l 1
 5 1 l 1
 4 1 l 1x14
 3 1 l 1x24
EndSplineSet
EndChar

StartChar: u
Encoding: 117 117 85
Width: 6
VWidth: 9
Flags: W
HStem: -15 20G<0 1 4 5> 1 21G<0 1 4 5> 1 21G<0 1 4 5>
VStem: 0 1<1 5> 4 1<1 5>
LayerCount: 2
Fore
SplineSet
0 5 m 1x98
 1 5 l 1x98
 1 4 l 1
 1 3 l 1
 1 2 l 1
 1 1 l 1
 0 1 l 1x58
 0 2 l 1
 0 3 l 1
 0 4 l 1
 0 5 l 1x98
1 1 m 1x58
 1 0 l 1
 2 0 l 1
 3 0 l 1
 4 0 l 1
 4 1 l 1x58
 3 1 l 1
 2 1 l 1x38
 1 1 l 1x58
4 1 m 1
 4 2 l 1
 4 3 l 1
 4 4 l 1
 4 5 l 1
 5 5 l 1x98
 5 4 l 1
 5 3 l 1
 5 2 l 1
 5 1 l 1
 4 1 l 1
EndSplineSet
EndChar

StartChar: v
Encoding: 118 118 86
Width: 6
VWidth: 9
Flags: W
HStem: -15 20G<0 1 4 5>
VStem: 0 1<2 5> 4 1<2 5>
LayerCount: 2
Fore
SplineSet
0 5 m 1
 1 5 l 1
 1 4 l 1
 1 3 l 1
 1 2 l 1
 0 2 l 1
 0 3 l 1
 0 4 l 1
 0 5 l 1
1 2 m 1
 1 1 l 1
 2 1 l 1
 2 2 l 1
 1 2 l 1
2 1 m 1
 2 0 l 1
 3 0 l 1
 3 1 l 1
 2 1 l 1
3 1 m 1
 4 1 l 1
 4 2 l 1
 3 2 l 1
 3 1 l 1
4 2 m 1
 4 3 l 1
 4 4 l 1
 4 5 l 1
 5 5 l 1
 5 4 l 1
 5 3 l 1
 5 2 l 1
 4 2 l 1
EndSplineSet
EndChar

StartChar: w
Encoding: 119 119 87
Width: 6
VWidth: 9
Flags: W
HStem: -15 20G<0 1 4 5> 1 21G<0 1 4 5> 1 21G<0 1 4 5>
VStem: 0 1<1 5> 4 1<1 5>
LayerCount: 2
Fore
SplineSet
0 5 m 1x98
 1 5 l 1x98
 1 4 l 1
 1 3 l 1
 1 2 l 1
 1 1 l 1
 0 1 l 1x58
 0 2 l 1
 0 3 l 1
 0 4 l 1
 0 5 l 1x98
1 1 m 1x58
 1 0 l 1
 2 0 l 1
 2 1 l 1x38
 1 1 l 1x58
2 1 m 1
 3 1 l 1
 3 2 l 1
 3 3 l 1
 2 3 l 1
 2 2 l 1
 2 1 l 1
3 1 m 1
 3 0 l 1
 4 0 l 1
 4 1 l 1x58
 3 1 l 1
4 1 m 1
 4 2 l 1
 4 3 l 1
 4 4 l 1
 4 5 l 1
 5 5 l 1x98
 5 4 l 1
 5 3 l 1
 5 2 l 1
 5 1 l 1
 4 1 l 1
EndSplineSet
EndChar

StartChar: x
Encoding: 120 120 88
Width: 6
VWidth: 9
Flags: W
HStem: 4 1<0 1 4 5>
VStem: 0 1<4 5> 4 1<4 5>
LayerCount: 2
Fore
SplineSet
0 5 m 1
 1 5 l 1
 1 4 l 1
 0 4 l 1
 0 5 l 1
1 4 m 1
 1 3 l 1
 2 3 l 1
 2 4 l 1
 1 4 l 1
2 3 m 1
 2 2 l 1
 3 2 l 1
 3 3 l 1
 2 3 l 1
3 3 m 1
 4 3 l 1
 4 4 l 1
 3 4 l 1
 3 3 l 1
4 4 m 1
 4 5 l 1
 5 5 l 1
 5 4 l 1
 4 4 l 1
3 2 m 1
 3 1 l 1
 4 1 l 1
 4 2 l 1
 3 2 l 1
4 1 m 1
 4 0 l 1
 5 0 l 1
 5 1 l 1
 4 1 l 1
2 2 m 1
 1 2 l 1
 1 1 l 1
 2 1 l 1
 2 2 l 1
1 1 m 1
 0 1 l 1
 0 0 l 1
 1 0 l 1
 1 1 l 1
EndSplineSet
EndChar

StartChar: y
Encoding: 121 121 89
Width: 6
VWidth: 9
Flags: W
HStem: -13 20G<0 1 4 5> -13 20G<0 1 4 5> 1 21G<4 5> 1 21G<4 5> 3 1<1 4> 4 21G<0 1>
VStem: 0 1<4 7> 4 1<1 3 4 7>
LayerCount: 2
Fore
SplineSet
0 7 m 1x83
 1 7 l 1x83
 1 6 l 1
 1 5 l 1
 1 4 l 1x0b
 0 4 l 1x07
 0 5 l 1
 0 6 l 1
 0 7 l 1x83
1 4 m 1x0b
 2 4 l 1
 3 4 l 1
 4 4 l 1x0b
 4 5 l 1
 4 6 l 1
 4 7 l 1
 5 7 l 1x83
 5 6 l 1
 5 5 l 1
 5 4 l 1x07
 5 3 l 1x0b
 5 2 l 1
 5 1 l 1
 4 1 l 1x23
 4 2 l 1
 4 3 l 1
 3 3 l 1
 2 3 l 1
 1 3 l 1
 1 4 l 1x0b
4 1 m 1x23
 3 1 l 1
 2 1 l 1
 1 1 l 1x13
 1 0 l 1
 2 0 l 1
 3 0 l 1
 4 0 l 1
 4 1 l 1x23
EndSplineSet
EndChar

StartChar: z
Encoding: 122 122 90
Width: 6
VWidth: 9
Flags: W
HStem: 4 1<0 3 4 5>
VStem: 3 1<3 4>
LayerCount: 2
Fore
SplineSet
0 5 m 1
 1 5 l 1
 2 5 l 1
 3 5 l 1
 4 5 l 1
 5 5 l 1
 5 4 l 1
 4 4 l 1
 4 3 l 1
 3 3 l 1
 3 4 l 1
 2 4 l 1
 1 4 l 1
 0 4 l 1
 0 5 l 1
3 3 m 1
 2 3 l 1
 2 2 l 1
 3 2 l 1
 3 3 l 1
2 2 m 1
 1 2 l 1
 1 1 l 1
 0 1 l 1
 0 0 l 1
 1 0 l 1
 2 0 l 1
 3 0 l 1
 4 0 l 1
 5 0 l 1
 5 1 l 1
 4 1 l 1
 3 1 l 1
 2 1 l 1
 2 2 l 1
EndSplineSet
EndChar

StartChar: braceleft
Encoding: 123 123 91
Width: 6
VWidth: 9
Flags: W
HStem: 6 1<3 4>
VStem: 3 1<6 7>
LayerCount: 2
Fore
SplineSet
3 7 m 1
 4 7 l 1
 4 6 l 1
 3 6 l 1
 3 7 l 1
3 6 m 1
 2 6 l 1
 2 5 l 1
 2 4 l 1
 3 4 l 1
 3 5 l 1
 3 6 l 1
2 4 m 1
 1 4 l 1
 1 3 l 1
 2 3 l 1
 2 4 l 1
2 3 m 1
 2 2 l 1
 2 1 l 1
 3 1 l 1
 3 2 l 1
 3 3 l 1
 2 3 l 1
3 1 m 1
 3 0 l 1
 4 0 l 1
 4 1 l 1
 3 1 l 1
EndSplineSet
EndChar

StartChar: bar
Encoding: 124 124 92
Width: 6
VWidth: 9
Flags: W
HStem: -13 20G<2 3> -13 20G<2 3> 0 21G<2 3> 0 21G<2 3>
VStem: 2 1<0 7>
LayerCount: 2
Fore
SplineSet
2 7 m 1x88
 3 7 l 1x88
 3 6 l 1
 3 5 l 1
 3 4 l 1
 3 3 l 1
 3 2 l 1
 3 1 l 1
 3 0 l 1
 2 0 l 1x28
 2 1 l 1
 2 2 l 1
 2 3 l 1
 2 4 l 1
 2 5 l 1
 2 6 l 1
 2 7 l 1x88
EndSplineSet
EndChar

StartChar: braceright
Encoding: 125 125 93
Width: 6
VWidth: 9
Flags: W
HStem: 6 1<1 2>
VStem: 1 1<6 7>
LayerCount: 2
Fore
SplineSet
1 7 m 1
 2 7 l 1
 2 6 l 1
 1 6 l 1
 1 7 l 1
2 6 m 1
 2 5 l 1
 2 4 l 1
 3 4 l 1
 3 5 l 1
 3 6 l 1
 2 6 l 1
3 4 m 1
 3 3 l 1
 4 3 l 1
 4 4 l 1
 3 4 l 1
3 3 m 1
 2 3 l 1
 2 2 l 1
 2 1 l 1
 3 1 l 1
 3 2 l 1
 3 3 l 1
2 1 m 1
 1 1 l 1
 1 0 l 1
 2 0 l 1
 2 1 l 1
EndSplineSet
EndChar

StartChar: asciitilde
Encoding: 126 126 94
Width: 6
VWidth: 9
Flags: W
HStem: 4 1<1 2>
VStem: 1 1<4 5>
LayerCount: 2
Fore
SplineSet
1 5 m 1
 2 5 l 1
 2 4 l 1
 1 4 l 1
 1 5 l 1
2 4 m 1
 2 3 l 1
 3 3 l 1
 3 4 l 1
 2 4 l 1
3 3 m 1
 3 2 l 1
 4 2 l 1
 4 3 l 1
 3 3 l 1
4 3 m 1
 5 3 l 1
 5 4 l 1
 4 4 l 1
 4 3 l 1
1 4 m 1
 0 4 l 1
 0 3 l 1
 1 3 l 1
 1 4 l 1
EndSplineSet
EndChar

StartChar: copyright
Encoding: 169 169 137
Width: 6
VWidth: 9
Flags: W
HStem: 0 1<1 2 3 4> 4 1<1 2 3 4>
VStem: 0 1<1 2 3 4> 2 1<1 2 3 4>
LayerCount: 2
Fore
SplineSet
0 5 m 1
 1 5 l 1
 2 5 l 1
 3 5 l 1
 4 5 l 1
 5 5 l 1
 5 4 l 1
 5 3 l 1
 5 2 l 1
 5 1 l 1
 5 0 l 1
 4 0 l 1
 3 0 l 1
 2 0 l 1
 1 0 l 1
 0 0 l 1
 0 1 l 1
 0 2 l 1
 0 3 l 1
 0 4 l 1
 0 5 l 1
1 4 m 1
 1 3 l 1
 2 3 l 1
 2 2 l 1
 1 2 l 1
 1 1 l 1
 2 1 l 1
 2 2 l 1
 3 2 l 1
 3 1 l 1
 4 1 l 1
 4 2 l 1
 4 3 l 1
 4 4 l 1
 3 4 l 1
 3 3 l 1
 2 3 l 1
 2 4 l 1
 1 4 l 1
EndSplineSet
EndChar

StartChar: degree
Encoding: 176 176 144
Width: 6
VWidth: 9
Flags: W
HStem: 6 1<2 3>
VStem: 2 1<6 7>
LayerCount: 2
Fore
SplineSet
2 7 m 1
 3 7 l 1
 3 6 l 1
 2 6 l 1
 2 7 l 1
3 6 m 1
 3 5 l 1
 4 5 l 1
 4 6 l 1
 3 6 l 1
3 5 m 1
 2 5 l 1
 2 4 l 1
 3 4 l 1
 3 5 l 1
2 5 m 1
 2 6 l 1
 1 6 l 1
 1 5 l 1
 2 5 l 1
EndSplineSet
EndChar

StartChar: mu
Encoding: 181 181 149
Width: 6
VWidth: 9
Flags: W
HStem: -15 20G<0 1 4 5> 0 21G<0 1> 0 21G<0 1> 1 1<1 4>
VStem: 0 1<0 1 2 5>
LayerCount: 2
Fore
SplineSet
0 5 m 5x88
 1 5 l 5x88
 1 4 l 5
 1 3 l 5
 1 2 l 5
 2 2 l 5
 3 2 l 5
 4 2 l 5
 4 1 l 5
 3 1 l 5
 2 1 l 5
 1 1 l 5x18
 1 0 l 5
 0 0 l 5x48
 0 1 l 5
 0 2 l 5x18
 0 3 l 5
 0 4 l 5
 0 5 l 5x88
4 2 m 5x18
 4 3 l 5
 4 4 l 5
 4 5 l 5
 5 5 l 5x88
 5 4 l 5
 5 3 l 5
 5 2 l 5
 4 2 l 5x18
EndSplineSet
EndChar

